<?xml version="1.0" encoding="UTF-8"?>
<!-- Generator: Adobe Illustrator 18.1.1, SVG Export Plug-In . SVG Version: 6.00 Build 0)  -->
<svg version="1.1" id="Layer_1" xmlns="http://www.w3.org/2000/svg" xmlns:xlink="http://www.w3.org/1999/xlink" x="0px" y="0px" width="95.1px" height="37px" viewBox="0 0 95.1 37" enable-background="new 0 0 95.1 37" xml:space="preserve">
<path fill="#5C6770" d="M94.2,0c0.9,12.1,1.5,25.6,0,31c0,0.1-0.3,0.6-0.4,0.7c-0.7,1-1.2,1.7-1.9,2.7c-0.6,0.9-1.3,1.8-2.3,2.3  c-0.1,0.1-0.2,0.2-0.3,0.3c-0.7-1-1.3-2-2-3c-0.1,0-0.3,0-0.4,0c-4.6,0-9.2,0.1-13.8,0.1c-7.5-0.1-9.7,0.3-17.2,0.5  c-2.7,0.1-11.6,0.2-14.3,0.3c-2,0.1-4.1,0.2-6.2,0.4C28.6,35.8,32,36,25,36.2c-1.6,0-3.1-0.2-4.7-0.3c-1.2-0.1-2.3-0.1-3.5-0.2  c-1.5-0.1-3-0.2-4.5-0.4c-0.8-0.1-1.7-0.4-2.4-0.7c-0.9-0.4-1.7-0.7-2.6-0.8c-1.5-0.2-3.4-1.9-3.6-3.5c0-0.3-0.7-4.4-0.8-4.7  c-0.2-3.3-0.9-5.3-1.1-8.6c-0.2-3.1-1.1-6-1.3-9C0.3,5.7,0.2,2.2,0,0"/>
</svg>